# xmcd CD database file
#
# Track frame offsets:
#	150
#	29647
#	42659
#	54208
#	74861
#	94101
#	115808
#	145498
#	167310
#	178531
#	205274
#	232524
#	258505
#	271500
#	297818
#
# Disc length: 4263 seconds
#
# Revision: 0
# Processed by: cddbd v1.5.1PL0 Copyright (c) Steve Scherf et al.
# Submitted via: CDex 1.51
#
DISCID=d410a50f
DTITLE=Various Artist - Compilation Cha-Cha
DYEAR=2002
DGENRE=Salsa
TTITLE0=Besame mama
TTITLE1=Cuando sali de cuba
TTITLE2=Dile que por mi  no tema
TTITLE3=El paso del mulo
TTITLE4=Mi carreta
TTITLE5=Ay mi cuba
TTITLE6=Ti Mon Bo
TTITLE7=Volver a verte
TTITLE8=Improvisando chacha
TTITLE9=Me voy contigo
TTITLE10=Ligia Elena
TTITLE11=Por si acaso no regreso
TTITLE12=Hey joe
TTITLE13=El puente mundial
TTITLE14=Come down to miami
EXTD=YEAR: 2002
EXTT0=
EXTT1=
EXTT2=
EXTT3=
EXTT4=
EXTT5=
EXTT6=
EXTT7=
EXTT8=
EXTT9=
EXTT10=
EXTT11=
EXTT12=
EXTT13=
EXTT14=
PLAYORDER=
